HIERARCHY
ROOT hip
{
  OFFSET 0 0 0
  CHANNELS 6 Xposition Yposition Zposition Zrotation Yrotation Xrotation
  JOINT abdomen
  {
    OFFSET 0 20.6881 -0.73152
    CHANNELS 3 Zrotation Xrotation Yrotation
    JOINT chest
    {
      OFFSET 0 11.7043 -0.48768
      CHANNELS 3 Zrotation Xrotation Yrotation
      JOINT neck
      {
        OFFSET 0 22.1894 -2.19456
        CHANNELS 3 Zrotation Xrotation Yrotation
        JOINT head
        {
          OFFSET -0.24384 7.07133 1.2192
          CHANNELS 3 Zrotation Xrotation Yrotation
          JOINT leftEye
          {
            OFFSET 4.14528 8.04674 8.04672
            CHANNELS 3 Zrotation Xrotation Yrotation
            End Site
            {
              OFFSET 1 0 0
            }
          }
          JOINT rightEye
          {
            OFFSET -3.6576 8.04674 8.04672
            CHANNELS 3 Zrotation Xrotation Yrotation
            End Site
            {
              OFFSET 1 0 0
            }
          }
        }
      }
      JOINT rCollar
      {
        OFFSET -2.68224 19.2634 -4.8768
        CHANNELS 3 Zrotation Xrotation Yrotation
        JOINT rShldr
        {
          OFFSET -8.77824 -1.95073 1.46304
          CHANNELS 3 Zrotation Xrotation Yrotation
          JOINT rForeArm
          {
            OFFSET -28.1742 -1.7115 0.48768
            CHANNELS 3 Zrotation Xrotation Yrotation
            JOINT rHand
            {
              OFFSET -22.5879 0.773209 7.07136
              CHANNELS 3 Zrotation Xrotation Yrotation
              JOINT rThumb1
              {
                OFFSET -1.2192 -0.487915 3.41376
                CHANNELS 3 Zrotation Xrotation Yrotation
                JOINT rThumb2
                {
                  OFFSET -3.37035 -0.52449 3.41376
                  CHANNELS 3 Zrotation Xrotation Yrotation
                  End Site
                  {
                    OFFSET -1.78271 -1.18214 1.43049
                  }
                }
              }
              JOINT rIndex1
              {
                OFFSET -7.75947 0.938293 5.60832
                CHANNELS 3 Zrotation Xrotation Yrotation
                JOINT rIndex2
                {
                  OFFSET -2.54057 -0.884171 1.56538
                  CHANNELS 3 Zrotation Xrotation Yrotation
                  End Site
                  {
                    OFFSET -1.62519 -0.234802 1.16502
                  }
                }
              }
              JOINT rMid1
              {
                OFFSET -8.24714 1.18213 3.41376
                CHANNELS 3 Zrotation Xrotation Yrotation
                JOINT rMid2
                {
                  OFFSET -3.10165 -0.590103 1.0647
                  CHANNELS 3 Zrotation Xrotation Yrotation
                  End Site
                  {
                    OFFSET -2.48547 -0.328903 0.83742
                  }
                }
              }
              JOINT rRing1
              {
                OFFSET -8.82822 0.546677 1.51678
                CHANNELS 3 Zrotation Xrotation Yrotation
                JOINT rRing2
                {
                  OFFSET -2.60934 -0.819778 -0.0198488
                  CHANNELS 3 Zrotation Xrotation Yrotation
                  End Site
                  {
                    OFFSET -2.33842 -0.294052 0.168128
                  }
                }
              }
              JOINT rPinky1
              {
                OFFSET -8.27202 -0.0477905 -0.4584
                CHANNELS 3 Zrotation Xrotation Yrotation
                JOINT rPinky2
                {
                  OFFSET -1.82734 -0.647385 -0.700984
                  CHANNELS 3 Zrotation Xrotation Yrotation
                  End Site
                  {
                    OFFSET -1.69225 -0.51767 -0.607171
                  }
                }
              }
            }
          }
        }
      }
      JOINT lCollar
      {
        OFFSET 2.68224 19.2634 -4.8768
        CHANNELS 3 Zrotation Xrotation Yrotation
        JOINT lShldr
        {
          OFFSET 8.77824 -1.95073 1.46304
          CHANNELS 3 Zrotation Xrotation Yrotation
          JOINT lForeArm
          {
            OFFSET 28.1742 -1.7115 0.48768
            CHANNELS 3 Zrotation Xrotation Yrotation
            JOINT lHand
            {
              OFFSET 22.5879 0.773209 7.07136
              CHANNELS 3 Zrotation Xrotation Yrotation
              JOINT lThumb1
              {
                OFFSET 1.2192 -0.487915 3.41376
                CHANNELS 3 Zrotation Xrotation Yrotation
                JOINT lThumb2
                {
                  OFFSET 3.37035 -0.52449 3.41376
                  CHANNELS 3 Zrotation Xrotation Yrotation
                  End Site
                  {
                    OFFSET 1.78271 -1.18214 1.43049
                  }
                }
              }
              JOINT lIndex1
              {
                OFFSET 7.75947 0.938293 5.60832
                CHANNELS 3 Zrotation Xrotation Yrotation
                JOINT lIndex2
                {
                  OFFSET 2.54057 -0.884171 1.56538
                  CHANNELS 3 Zrotation Xrotation Yrotation
                  End Site
                  {
                    OFFSET 1.62519 -0.234802 1.16502
                  }
                }
              }
              JOINT lMid1
              {
                OFFSET 8.24714 1.18213 3.41376
                CHANNELS 3 Zrotation Xrotation Yrotation
                JOINT lMid2
                {
                  OFFSET 3.10165 -0.590103 1.0647
                  CHANNELS 3 Zrotation Xrotation Yrotation
                  End Site
                  {
                    OFFSET 2.48547 -0.328903 0.83742
                  }
                }
              }
              JOINT lRing1
              {
                OFFSET 8.82822 0.546677 1.51678
                CHANNELS 3 Zrotation Xrotation Yrotation
                JOINT lRing2
                {
                  OFFSET 2.60934 -0.819778 -0.0198488
                  CHANNELS 3 Zrotation Xrotation Yrotation
                  End Site
                  {
                    OFFSET 2.33842 -0.294052 0.168128
                  }
                }
              }
              JOINT lPinky1
              {
                OFFSET 8.27202 -0.0477905 -0.4584
                CHANNELS 3 Zrotation Xrotation Yrotation
                JOINT lPinky2
                {
                  OFFSET 1.82734 -0.647385 -0.700984
                  CHANNELS 3 Zrotation Xrotation Yrotation
                  End Site
                  {
                    OFFSET 1.69225 -0.51767 -0.607171
                  }
                }
              }
            }
          }
        }
      }
    }
  }
  JOINT rButtock
  {
    OFFSET -8.77824 4.35084 1.2192
    CHANNELS 3 Zrotation Xrotation Yrotation
    JOINT rThigh
    {
      OFFSET 0 -1.70687 -2.19456
      CHANNELS 3 Zrotation Xrotation Yrotation
      JOINT rShin
      {
        OFFSET 0 -36.8199 0.73152
        CHANNELS 3 Zrotation Xrotation Yrotation
        JOINT rFoot
        {
          OFFSET 0.73152 -45.1104 -5.12064
          CHANNELS 3 Zrotation Xrotation Yrotation
          End Site
          {
            OFFSET -1.1221 -3.69964 12.103
          }
        }
      }
    }
  }
  JOINT lButtock
  {
    OFFSET 8.77824 4.35084 1.2192
    CHANNELS 3 Zrotation Xrotation Yrotation
    JOINT lThigh
    {
      OFFSET 0 -1.70687 -2.19456
      CHANNELS 3 Zrotation Xrotation Yrotation
      JOINT lShin
      {
        OFFSET 0 -36.8199 0.73152
        CHANNELS 3 Zrotation Xrotation Yrotation
        JOINT lFoot
        {
          OFFSET -0.73152 -45.1104 -5.12064
          CHANNELS 3 Zrotation Xrotation Yrotation
          End Site
          {
            OFFSET 1.1221 -3.69964 12.103
          }
        }
      }
    }
  }
}
MOTION
Frames:	4
Frame Time:	0.00833333
35.8809 82.6443 41.6679 177.039 5.4501 177.713 -8.54959 15.5291 2.11691 2.80705 -5.98605 0.5345 5.53776 -10.2929 3.02533 -4.45586 -7.41945 3.25478 -0.0 0.0 0.0 -0.0 0.0 0.0 -1.33768e-13 -5.72527e-14 2.3069e-13 31.6643 -0.41501 56.7997 -27.8039 -29.5487 66.5291 -0.097452 -8.86883 -1.25658 -5.04974e-10 -1.18195e-09 -3.65373e-10 -8.70154e-10 -2.04586e-09 -6.37102e-10 -5.04968e-10 -1.18196e-09 -3.65388e-10 7.73091 5.47488 0.417314 -5.04972e-10 -1.18196e-09 -3.65379e-10 2.90554 0.965183 0.102902 -5.04963e-10 -1.18196e-09 -3.65373e-10 10.2786 0.731801 0.0259123 -5.04973e-10 -1.18196e-09 -3.65363e-10 2.22167 -0.733487 -0.20892 -1.34003e-13 -5.72492e-14 2.30391e-13 -33.6613 -5.80796 -53.4053 27.7768 -29.4158 -66.3174 0.0971666 -8.85596 1.25473 -2.66349e-10 2.26433e-09 -1.64009e-09 -4.47446e-10 3.90065e-09 -2.83819e-09 -2.66352e-10 2.26433e-09 -1.64007e-09 -7.73091 5.47488 -0.417314 -2.66352e-10 2.26432e-09 -1.64008e-09 -2.90554 0.965183 -0.102902 -2.66362e-10 2.26432e-09 -1.64009e-09 -10.2786 0.731801 -0.0259123 -2.6634e-10 2.26432e-09 -1.64009e-09 -2.22167 -0.733487 0.20892 -2.03217e-16 0.0 -3.88251e-19 -16.3983 -28.1676 -8.87617 -0.591516 48.9178 0.852629 3.73686 -9.04544 15.6838 2.03217e-16 0.0 3.88251e-19 11.0004 -26.1001 10.3468 0.487827 47.1183 -0.903304 -2.98998 -13.472 -10.1651
35.8807 82.6396 41.678 177.03 5.463 177.754 -8.54356 15.533 2.11193 2.80422 -5.99939 0.533009 5.50315 -10.3272 3.02126 -4.36317 -7.39716 3.2665 -0.0 0.0 0.0 -0.0 0.0 0.0 -1.10691e-13 -3.96102e-14 1.72616e-13 31.6808 -0.398982 56.8187 -27.8011 -29.5351 66.5074 -0.0981418 -8.90008 -1.26108 -3.57126e-10 -1.17302e-09 -5.24647e-10 -6.13268e-10 -2.02754e-09 -9.115e-10 -3.57118e-10 -1.17303e-09 -5.24659e-10 7.73091 5.47488 0.417314 -3.57124e-10 -1.17303e-09 -5.24652e-10 2.90554 0.965183 0.102902 -3.57116e-10 -1.17303e-09 -5.24645e-10 10.2786 0.731801 0.0259123 -3.57126e-10 -1.17303e-09 -5.24636e-10 2.22167 -0.733487 -0.20892 -1.10907e-13 -3.96071e-14 1.72336e-13 -33.6346 -5.80785 -53.3765 27.774 -29.4018 -66.2947 0.0977568 -8.88263 1.25857 -1.51529e-10 1.74007e-09 -1.31832e-09 -2.51892e-10 2.99709e-09 -2.28088e-09 -1.51533e-10 1.74007e-09 -1.3183e-09 -7.73091 5.47488 -0.417314 -1.51531e-10 1.74006e-09 -1.31832e-09 -2.90554 0.965183 -0.102902 -1.51541e-10 1.74006e-09 -1.31832e-09 -10.2786 0.731801 -0.0259123 -1.5152e-10 1.74006e-09 -1.31833e-09 -2.22167 -0.733487 0.20892 -2.03217e-16 0.0 -3.88251e-19 -16.3943 -28.1788 -8.8732 -0.591288 48.9252 0.852577 3.73914 -9.04939 15.6831 2.03217e-16 0.0 3.88251e-19 11.0109 -26.1103 10.3586 0.488122 47.1263 -0.905638 -2.99136 -13.4704 -10.171
35.9021 82.6389 41.6788 177.115 5.4726 177.753 -8.53282 15.5389 2.10691 2.79922 -6.01301 0.530644 5.45002 -10.3817 3.01132 -4.23642 -7.34691 3.27624 -0.0 0.0 0.0 -0.0 0.0 0.0 -5.69018e-14 -1.88859e-14 6.49529e-14 31.7023 -0.388111 56.8351 -27.7984 -29.5219 66.4864 -0.0992322 -8.94902 -1.26813 -1.202e-10 -9.26501e-10 -5.96836e-10 -2.03066e-10 -1.59854e-09 -1.0346e-09 -1.2019e-10 -9.26503e-10 -5.96843e-10 7.73091 5.47488 0.417314 -1.20199e-10 -9.26505e-10 -5.96838e-10 2.90554 0.965183 0.102902 -1.20192e-10 -9.26505e-10 -5.96832e-10 10.2786 0.731801 0.0259123 -1.20199e-10 -9.26505e-10 -5.96823e-10 2.22167 -0.733487 -0.20892 -5.70584e-14 -1.88841e-14 6.4723e-14 -33.6039 -5.81403 -53.3586 27.7706 -29.3851 -66.268 0.0984758 -8.91494 1.26323 5.29129e-11 7.99597e-10 -7.41776e-10 9.66089e-11 1.37571e-09 -1.28228e-09 5.2907e-11 7.99606e-10 -7.41747e-10 -7.73091 5.47488 -0.417314 5.29133e-11 7.99597e-10 -7.4177e-10 -2.90554 0.965183 -0.102902 5.29021e-11 7.99597e-10 -7.41772e-10 -10.2786 0.731801 -0.0259123 5.29202e-11 7.99597e-10 -7.41775e-10 -2.22167 -0.733487 0.20892 -2.03217e-16 0.0 -3.88251e-19 -16.386 -28.1933 -8.87301 -0.590793 48.9332 0.852629 3.74174 -9.05474 15.6796 2.03217e-16 0.0 3.88251e-19 11.0277 -26.1267 10.3708 0.488535 47.1373 -0.909051 -2.99329 -13.466 -10.1811
35.8766 82.6414 41.6748 177.01 5.4314 177.733 -8.51905 15.5464 2.10165 2.79368 -6.02681 0.5282 5.39424 -10.437 2.9981 -4.10853 -7.29438 3.28069 -0.0 0.0 0.0 -0.0 0.0 0.0 1.91167e-15 3.72701e-15 -4.43251e-14 31.7232 -0.37962 56.8489 -27.7961 -29.5106 66.4685 -0.100332 -8.99783 -1.27517 1.02883e-10 -6.52031e-10 -6.31405e-10 1.82935e-10 -1.12157e-09 -1.09263e-09 1.02895e-10 -6.5203e-10 -6.31407e-10 7.73091 5.47488 0.417314 1.02883e-10 -6.52035e-10 -6.31404e-10 2.90554 0.965183 0.102902 1.02889e-10 -6.52034e-10 -6.31397e-10 10.2786 0.731801 0.0259123 1.02884e-10 -6.52033e-10 -6.31389e-10 2.22167 -0.733487 -0.20892 1.81916e-15 3.72724e-15 -4.45021e-14 -33.5759 -5.82443 -53.3483 27.7669 -29.3673 -66.2399 0.0991398 -8.9446 1.2675 2.61899e-10 -2.24933e-10 -9.87633e-11 4.52542e-10 -3.90503e-10 -1.68728e-10 2.61891e-10 -2.24917e-10 -9.87316e-11 -7.73091 5.47488 -0.417314 2.61902e-10 -2.24928e-10 -9.87587e-11 -2.90554 0.965183 -0.102902 2.6189e-10 -2.24927e-10 -9.87579e-11 -10.2786 0.731801 -0.0259123 2.61905e-10 -2.24926e-10 -9.87602e-11 -2.22167 -0.733487 0.20892 -2.03217e-16 0.0 -3.88251e-19 -16.3746 -28.2087 -8.87406 -0.590209 48.941 0.852761 3.74431 -9.0606 15.6742 2.03217e-16 0.0 3.88251e-19 11.0486 -26.1458 10.3833 0.488955 47.1494 -0.912429 -2.99502 -13.4587 -10.1926
